<svg id="visual" viewBox="0 0 500 500" width="500" height="500" xmlns="http://www.w3.org/2000/svg" xmlns:xlink="http://www.w3.org/1999/xlink" version="1.1"><g transform="translate(238.07877306887255 237.26380800700753)"><path d="M104.5 -107.8C145.5 -90.1 195.8 -66.7 213 -28.8C230.2 9.2 214.3 61.9 184.8 100.7C155.2 139.6 112.2 164.7 73.8 160.3C35.4 155.9 1.7 122 -45.8 111.1C-93.3 100.2 -154.4 112.4 -180.5 92.2C-206.5 71.9 -197.3 19.4 -174.7 -17.3C-152.2 -54 -116.3 -74.9 -84.9 -94.4C-53.6 -113.8 -26.8 -131.9 2.5 -134.9C31.7 -137.8 63.4 -125.6 104.5 -107.8" fill="#344859"></path></g></svg>