<svg id="visual" viewBox="0 0 1000 200" width="1000" height="200" xmlns="http://www.w3.org/2000/svg" xmlns:xlink="http://www.w3.org/1999/xlink" version="1.1"><rect x="0" y="0" width="1000" height="200" fill="#F2F2F2"></rect><path d="M0 89L16.7 92C33.3 95 66.7 101 100 112.5C133.3 124 166.7 141 200 150C233.3 159 266.7 160 300 152.7C333.3 145.3 366.7 129.7 400 124.2C433.3 118.7 466.7 123.3 500 132.5C533.3 141.7 566.7 155.3 600 159.3C633.3 163.3 666.7 157.7 700 154.7C733.3 151.7 766.7 151.3 800 143.2C833.3 135 866.7 119 900 115C933.3 111 966.7 119 983.3 123L1000 127L1000 0L983.3 0C966.7 0 933.3 0 900 0C866.7 0 833.3 0 800 0C766.7 0 733.3 0 700 0C666.7 0 633.3 0 600 0C566.7 0 533.3 0 500 0C466.7 0 433.3 0 400 0C366.7 0 333.3 0 300 0C266.7 0 233.3 0 200 0C166.7 0 133.3 0 100 0C66.7 0 33.3 0 16.7 0L0 0Z" fill="#b8bfbe"></path><path d="M0 77L16.7 75C33.3 73 66.7 69 100 75C133.3 81 166.7 97 200 99.5C233.3 102 266.7 91 300 84.3C333.3 77.7 366.7 75.3 400 78.2C433.3 81 466.7 89 500 92C533.3 95 566.7 93 600 90.7C633.3 88.3 666.7 85.7 700 90.5C733.3 95.3 766.7 107.7 800 107.7C833.3 107.7 866.7 95.3 900 86.3C933.3 77.3 966.7 71.7 983.3 68.8L1000 66L1000 0L983.3 0C966.7 0 933.3 0 900 0C866.7 0 833.3 0 800 0C766.7 0 733.3 0 700 0C666.7 0 633.3 0 600 0C566.7 0 533.3 0 500 0C466.7 0 433.3 0 400 0C366.7 0 333.3 0 300 0C266.7 0 233.3 0 200 0C166.7 0 133.3 0 100 0C66.7 0 33.3 0 16.7 0L0 0Z" fill="#5f696d"></path><path d="M0 64L16.7 61.8C33.3 59.7 66.7 55.3 100 54.3C133.3 53.3 166.7 55.7 200 53.8C233.3 52 266.7 46 300 43.2C333.3 40.3 366.7 40.7 400 39.8C433.3 39 466.7 37 500 35.2C533.3 33.3 566.7 31.7 600 32.8C633.3 34 666.7 38 700 46C733.3 54 766.7 66 800 62.8C833.3 59.7 866.7 41.3 900 35.5C933.3 29.7 966.7 36.3 983.3 39.7L1000 43L1000 0L983.3 0C966.7 0 933.3 0 900 0C866.7 0 833.3 0 800 0C766.7 0 733.3 0 700 0C666.7 0 633.3 0 600 0C566.7 0 533.3 0 500 0C466.7 0 433.3 0 400 0C366.7 0 333.3 0 300 0C266.7 0 233.3 0 200 0C166.7 0 133.3 0 100 0C66.7 0 33.3 0 16.7 0L0 0Z" fill="#181d26"></path></svg>