<svg id="visual" viewBox="0 0 960 300" width="960" height="300" xmlns="http://www.w3.org/2000/svg" xmlns:xlink="http://www.w3.org/1999/xlink" version="1.1"><rect x="0" y="0" width="960" height="300" fill="#F2F2F2"></rect><path d="M0 204L22.8 208.3C45.7 212.7 91.3 221.3 137 223.8C182.7 226.3 228.3 222.7 274 220.3C319.7 218 365.3 217 411.2 209.5C457 202 503 188 548.8 178.2C594.7 168.3 640.3 162.7 686 158.8C731.7 155 777.3 153 823 166C868.7 179 914.3 207 937.2 221L960 235L960 0L937.2 0C914.3 0 868.7 0 823 0C777.3 0 731.7 0 686 0C640.3 0 594.7 0 548.8 0C503 0 457 0 411.2 0C365.3 0 319.7 0 274 0C228.3 0 182.7 0 137 0C91.3 0 45.7 0 22.8 0L0 0Z" fill="#b8bfbe"></path><path d="M0 123L22.8 118.7C45.7 114.3 91.3 105.7 137 114C182.7 122.3 228.3 147.7 274 148.5C319.7 149.3 365.3 125.7 411.2 120.2C457 114.7 503 127.3 548.8 126.8C594.7 126.3 640.3 112.7 686 106.3C731.7 100 777.3 101 823 102.7C868.7 104.3 914.3 106.7 937.2 107.8L960 109L960 0L937.2 0C914.3 0 868.7 0 823 0C777.3 0 731.7 0 686 0C640.3 0 594.7 0 548.8 0C503 0 457 0 411.2 0C365.3 0 319.7 0 274 0C228.3 0 182.7 0 137 0C91.3 0 45.7 0 22.8 0L0 0Z" fill="#5f696d"></path><path d="M0 95L22.8 86.7C45.7 78.3 91.3 61.7 137 60.3C182.7 59 228.3 73 274 73.8C319.7 74.7 365.3 62.3 411.2 62.7C457 63 503 76 548.8 80.5C594.7 85 640.3 81 686 78.5C731.7 76 777.3 75 823 73.7C868.7 72.3 914.3 70.7 937.2 69.8L960 69L960 0L937.2 0C914.3 0 868.7 0 823 0C777.3 0 731.7 0 686 0C640.3 0 594.7 0 548.8 0C503 0 457 0 411.2 0C365.3 0 319.7 0 274 0C228.3 0 182.7 0 137 0C91.3 0 45.7 0 22.8 0L0 0Z" fill="#181d26"></path></svg>